<?xml version="1.0" encoding="UTF-8" standalone="no"?>
<svg
   viewBox="0 0 1272.85 1251.63"
   version="1.1"
   id="svg574"
   xmlns="http://www.w3.org/2000/svg"
   xmlns:svg="http://www.w3.org/2000/svg">
  <defs
     id="defs518">
    <clipPath
       id="clip-0">
      <path
         clip-rule="nonzero"
         d="M 124,113 H 1149 V 1138 H 124 Z m 0,0"
         id="path482" />
    </clipPath>
    <clipPath
       id="clip-1">
      <path
         clip-rule="nonzero"
         d="m 354.42969,113.8125 c -127.03125,0 -230.00391,102.97656 -230.00391,230.00391 v 563.99218 c 0,127.02731 102.97266,230.00391 230.00391,230.00391 h 563.98828 c 127.02733,0 230.00393,-102.9766 230.00393,-230.00391 V 343.81641 c 0,-127.02735 -102.9766,-230.00391 -230.00393,-230.00391 z m 0,0"
         id="path485" />
    </clipPath>
    <clipPath
       id="clip-2">
      <path
         clip-rule="nonzero"
         d="M 503,617 H 976 V 998 H 503 Z m 0,0"
         id="path488" />
    </clipPath>
    <clipPath
       id="clip-3">
      <path
         clip-rule="nonzero"
         d="m 639.42578,617.8125 c -75.11328,0 -136,60.89062 -136,136 v 108 c 0,75.11328 60.88672,136 136,136 h 200 c 75.10938,0 136,-60.88672 136,-136 v -108 c 0,-75.10938 -60.89062,-136 -136,-136 z m 0.875,309.99219 c -37.03906,-0.60157 -66.87891,-30.8125 -66.87891,-67.99219 v -104 l 0.0117,-1.12109 c 0.60157,-37.03907 30.8086,-66.87891 67.99219,-66.87891 h 196 l 1.125,0.0117 c 37.03516,0.59765 66.87109,30.80859 66.87109,67.98828 v 104 l -0.008,1.125 c -0.60156,37.03516 -30.8125,66.875 -67.98828,66.875 h -196 z m 0,0"
         id="path491" />
    </clipPath>
    <clipPath
       id="clip-4">
      <path
         clip-rule="nonzero"
         d="M 365,217 H 734 V 586 H 365 Z m 0,0"
         id="path494" />
    </clipPath>
    <clipPath
       id="clip-5">
      <path
         clip-rule="nonzero"
         d="m 365.42187,401.8125 c 0,101.62109 82.38282,184 184.00391,184 101.61719,0 183.99609,-82.37891 183.99609,-184 0,-101.62109 -82.3789,-184 -183.99609,-184 -101.62109,0 -184.00391,82.37891 -184.00391,184 m 74.00391,0 c 0,-60.75 49.24609,-110 110,-110 60.75,0 110,49.25 110,110 0,60.75391 -49.25,110 -110,110 -60.75391,0 -110,-49.24609 -110,-110"
         id="path497" />
    </clipPath>
    <clipPath
       id="clip-6">
      <path
         clip-rule="nonzero"
         d="M 659,269 H 976 V 586 H 659 Z m 0,0"
         id="path500" />
    </clipPath>
    <clipPath
       id="clip-7">
      <path
         clip-rule="nonzero"
         d="m 659.42578,427.8125 c 0,87.26172 70.73828,158 157.99609,158 87.26172,0 158.00391,-70.73828 158.00391,-158 0,-87.25781 -70.74219,-158 -158.00391,-158 -87.25781,0 -157.99609,70.74219 -157.99609,158 m 73.99609,0 c 0,-46.39063 37.60938,-84 84,-84 46.39454,0 84.00391,37.60937 84.00391,84 0,46.39453 -37.60937,84 -84.00391,84 -46.39062,0 -84,-37.60547 -84,-84"
         id="path503" />
    </clipPath>
    <clipPath
       id="clip-8">
      <path
         clip-rule="nonzero"
         d="M 295,645 H 574 V 971 H 295 Z m 0,0"
         id="path506" />
    </clipPath>
    <clipPath
       id="clip-9">
      <path
         clip-rule="nonzero"
         d="m 295.42578,711.19531 v 193.71094 c 0,10.26562 2.39453,20.39453 6.99609,29.57422 16.33204,32.58594 55.98829,45.76172 88.57422,29.42578 L 573.42187,872.47266 V 744.52734 l -182.1914,-92.21875 c -9.23828,-4.67578 -19.45313,-7.11328 -29.80469,-7.11328 -36.45312,0 -66,29.54688 -66,66 m 71.96094,166.41016 c -1.28906,-2.53125 -1.96485,-5.33203 -1.96485,-8.17578 v -121.4375 l 0.004,-0.33203 c 0.17578,-9.78516 8.16797,-17.66797 17.99609,-17.66797 2.8086,0 5.57032,0.65625 8.07813,1.91406 l 113.92578,57.20312 v 38.3125 l -113.82422,58.04297 -0.30469,0.15235 c -2.53125,1.23047 -5.21484,1.8164 -7.85937,1.8164 -6.55078,0 -12.87109,-3.58984 -16.05078,-9.82812"
         id="path509" />
    </clipPath>
    <clipPath
       id="clip-10">
      <path
         clip-rule="nonzero"
         d="M 295,645 H 574 V 971 H 295 Z m 0,0"
         id="path512" />
    </clipPath>
    <clipPath
       id="clip-11">
      <path
         clip-rule="nonzero"
         d="m 295.42578,711.19531 v 193.71094 c 0,10.26562 2.39453,20.39453 6.99609,29.57422 16.33204,32.58594 55.98829,45.76172 88.57422,29.42578 L 573.42187,872.47266 V 744.52734 l -182.1914,-92.21875 c -9.23828,-4.67578 -19.45313,-7.11328 -29.80469,-7.11328 -36.45312,0 -66,29.54688 -66,66 m 71.96094,166.41016 c -1.28906,-2.53125 -1.96485,-5.33203 -1.96485,-8.17578 v -121.4375 l 0.004,-0.33203 c 0.17578,-9.78516 8.16797,-17.66797 17.99609,-17.66797 2.8086,0 5.57032,0.65625 8.07813,1.91406 l 113.92578,57.20312 v 38.3125 l -113.82422,58.04297 -0.30469,0.15235 c -2.53125,1.23047 -5.21484,1.8164 -7.85937,1.8164 -6.55078,0 -12.86719,-3.58984 -16.05078,-9.82812"
         id="path515" />
    </clipPath>
  </defs>
  <path
     fill-rule="evenodd"
     fill="#ffffff"
     fill-opacity="1"
     d="m 354.42969,113.8125 c -127.02735,0 -230.00781,102.97656 -230.00781,230.00391 v 563.99218 c 0,127.02731 102.98046,230.00391 230.00781,230.00391 h 563.98828 c 127.03123,0 230.00393,-102.9766 230.00393,-230.00391 V 343.81641 c 0,-127.02735 -102.9727,-230.00391 -230.00393,-230.00391 z m 0,0"
     id="path520" />
  <g
     clip-path="url(#clip-0)"
     id="g528">
    <g
       clip-path="url(#clip-1)"
       id="g526">
      <path
         fill-rule="nonzero"
         fill="#ffffff"
         fill-opacity="1"
         d="M 124.42578,1137.8125 H 1148.4258 v -1024 H 124.42578 Z m 0,0"
         id="path522" />
      <path
         fill-rule="nonzero"
         fill="#ffffff"
         fill-opacity="1"
         d="M 119.42578,108.8125 H 1153.4258 v 1034 H 119.42578 Z m 0,0"
         id="path524" />
    </g>
  </g>
  <path
     fill-rule="evenodd"
     fill="#ff4906"
     fill-opacity="1"
     d="m 839.42187,617.8125 c 75.11329,0 136,60.89062 136,136 v 108 c 0,75.11328 -60.88671,136 -136,136 h -200 c -75.10937,0 -136,-60.88672 -136,-136 v -108 c 0,-75.10938 60.89063,-136 136,-136 z m -2,70 h -196 c -37.17968,0 -67.38671,29.83984 -67.98828,66.875 l -0.0117,1.125 v 104 c 0,37.17969 29.83985,67.39062 66.87891,67.99219 l 1.12109,0.008 h 196 c 37.1836,0 67.39454,-29.83984 67.99219,-66.875 l 0.008,-1.125 v -104 c 0,-37.17969 -29.83593,-67.39063 -66.875,-67.98828 z m 0,0"
     id="path530" />
  <g
     clip-path="url(#clip-2)"
     id="g538">
    <g
       clip-path="url(#clip-3)"
       id="g536">
      <path
         fill-rule="nonzero"
         fill="#ff4906"
         fill-opacity="1"
         d="M 124.42578,1137.8125 H 1148.4258 v -1024 H 124.42578 Z m 0,0"
         id="path532" />
      <path
         fill-rule="nonzero"
         fill="#ff4906"
         fill-opacity="1"
         d="m 498.42578,612.8125 h 482 v 390 h -482 z m 0,0"
         id="path534" />
    </g>
  </g>
  <path
     fill-rule="nonzero"
     fill="#ff4906"
     fill-opacity="1"
     d="m 549.42187,217.8125 c 101.6211,0 184,82.37891 184,184 0,101.62109 -82.3789,184 -184,184 -101.61718,0 -184,-82.37891 -184,-184 0,-101.62109 82.38282,-184 184,-184 m 0,74 c -60.75,0 -110,49.25 -110,110 0,60.75391 49.25,110 110,110 60.75391,0 110,-49.24609 110,-110 0,-60.75 -49.24609,-110 -110,-110"
     id="path540" />
  <g
     clip-path="url(#clip-4)"
     id="g548">
    <g
       clip-path="url(#clip-5)"
       id="g546">
      <path
         fill-rule="nonzero"
         fill="#ff4906"
         fill-opacity="1"
         d="M 124.42578,1137.8125 H 1148.4258 v -1024 H 124.42578 Z m 0,0"
         id="path542" />
      <path
         fill-rule="nonzero"
         fill="#ff4906"
         fill-opacity="1"
         d="m 360.42578,212.8125 h 378 v 378 h -378 z m 0,0"
         id="path544" />
    </g>
  </g>
  <path
     fill-rule="nonzero"
     fill="#ff4906"
     fill-opacity="1"
     d="m 817.42187,269.8125 c 87.26172,0 158,70.73828 158,158 0,87.26172 -70.73828,158 -158,158 -87.25781,0 -158,-70.73828 -158,-158 0,-87.26172 70.74219,-158 158,-158 m 0,74 c -46.39062,0 -84,37.60937 -84,84 0,46.39453 37.60938,84 84,84 46.39454,0 84,-37.60547 84,-84 0,-46.39063 -37.60546,-84 -84,-84"
     id="path550" />
  <g
     clip-path="url(#clip-6)"
     id="g558">
    <g
       clip-path="url(#clip-7)"
       id="g556">
      <path
         fill-rule="nonzero"
         fill="#ff4906"
         fill-opacity="1"
         d="M 124.42578,1137.8125 H 1148.4258 v -1024 H 124.42578 Z m 0,0"
         id="path552" />
      <path
         fill-rule="nonzero"
         fill="#ff4906"
         fill-opacity="1"
         d="m 654.42578,264.8125 h 326 v 326 h -326 z m 0,0"
         id="path554" />
    </g>
  </g>
  <path
     fill-rule="evenodd"
     fill="#ff4906"
     fill-opacity="1"
     d="m 361.42187,645.19531 c 10.35938,0 20.57032,2.4375 29.8086,7.11328 l 182.1914,92.21875 v 127.94141 l -182.42578,91.4375 c -32.58593,16.33594 -72.24218,3.16016 -88.57422,-29.42578 -4.60156,-9.17969 -7,-19.3086 -7,-29.57422 V 711.19531 c 0,-36.45312 29.55079,-66 66,-66 m 22,84.79688 c -9.82812,0 -17.82031,7.88281 -17.99609,17.67187 l -0.004,0.32813 v 121.4375 c 0,2.84375 0.67579,5.64453 1.96875,8.17578 4.46094,8.7539 15.10547,12.29297 23.90235,8.01172 l 0.30859,-0.15235 113.82031,-58.04297 v -38.3125 L 391.5,731.90625 c -2.50391,-1.25781 -5.26953,-1.91406 -8.07813,-1.91406"
     id="path560" />
  <g
     clip-path="url(#clip-8)"
     id="g566">
    <g
       clip-path="url(#clip-9)"
       id="g564">
      <path
         fill-rule="nonzero"
         fill="#ff4906"
         fill-opacity="1"
         d="M 124.42578,1137.8125 H 1148.4258 v -1024 H 124.42578 Z m 0,0"
         id="path562" />
    </g>
  </g>
  <g
     clip-path="url(#clip-10)"
     id="g572">
    <g
       clip-path="url(#clip-11)"
       id="g570">
      <path
         fill-rule="nonzero"
         fill="#ff4906"
         fill-opacity="1"
         d="M 290.42578,640.19531 H 578.42187 V 975.92187 H 290.42578 Z m 0,0"
         id="path568" />
    </g>
  </g>
</svg>
