<?xml version="1.0" encoding="UTF-8" standalone="no"?>
<svg

   viewBox="0 0 497.58409 497.58221"
   version="1.1"
   id="svg574"
   inkscape:export-xdpi="28.762495"
   inkscape:export-ydpi="28.762495"
   inkscape:version="1.2 (dc2aeda, 2022-05-15)"
   xmlns:inkscape="http://www.inkscape.org/namespaces/inkscape"
   xmlns:sodipodi="http://sodipodi.sourceforge.net/DTD/sodipodi-0.dtd"
   xmlns="http://www.w3.org/2000/svg"
   xmlns:svg="http://www.w3.org/2000/svg">
  <sodipodi:namedview
     id="namedview55"
     pagecolor="#ffffff"
     bordercolor="#000000"
     borderopacity="0.25"
     inkscape:showpageshadow="2"
     inkscape:pageopacity="0.0"
     inkscape:pagecheckerboard="0"
     inkscape:deskcolor="#d1d1d1"
     inkscape:document-units="pt"
     showgrid="false"
     inkscape:zoom="0.14141559"
     inkscape:cx="689.45721"
     inkscape:cy="685.92153"
     inkscape:window-width="1440"
     inkscape:window-height="900"
     inkscape:window-x="0"
     inkscape:window-y="0"
     inkscape:window-maximized="0"
     inkscape:current-layer="svg574" />
  <defs
     id="defs518">
    <clipPath
       id="clip-0">
      <path
         clip-rule="nonzero"
         d="M 124,113 H 1149 V 1138 H 124 Z m 0,0"
         id="path482" />
    </clipPath>
    <clipPath
       id="clip-1">
      <path
         clip-rule="nonzero"
         d="m 354.42969,113.8125 c -127.03125,0 -230.00391,102.97656 -230.00391,230.00391 v 563.99218 c 0,127.02731 102.97266,230.00391 230.00391,230.00391 h 563.98828 c 127.02733,0 230.00393,-102.9766 230.00393,-230.00391 V 343.81641 c 0,-127.02735 -102.9766,-230.00391 -230.00393,-230.00391 z m 0,0"
         id="path485" />
    </clipPath>
    <clipPath
       id="clip-2">
      <path
         clip-rule="nonzero"
         d="M 503,617 H 976 V 998 H 503 Z m 0,0"
         id="path488" />
    </clipPath>
    <clipPath
       id="clip-3">
      <path
         clip-rule="nonzero"
         d="m 639.42578,617.8125 c -75.11328,0 -136,60.89062 -136,136 v 108 c 0,75.11328 60.88672,136 136,136 h 200 c 75.10938,0 136,-60.88672 136,-136 v -108 c 0,-75.10938 -60.89062,-136 -136,-136 z m 0.875,309.99219 c -37.03906,-0.60157 -66.87891,-30.8125 -66.87891,-67.99219 v -104 l 0.0117,-1.12109 c 0.60157,-37.03907 30.8086,-66.87891 67.99219,-66.87891 h 196 l 1.125,0.0117 c 37.03516,0.59765 66.87109,30.80859 66.87109,67.98828 v 104 l -0.008,1.125 c -0.60156,37.03516 -30.8125,66.875 -67.98828,66.875 h -196 z m 0,0"
         id="path491" />
    </clipPath>
    <clipPath
       id="clip-4">
      <path
         clip-rule="nonzero"
         d="M 365,217 H 734 V 586 H 365 Z m 0,0"
         id="path494" />
    </clipPath>
    <clipPath
       id="clip-5">
      <path
         clip-rule="nonzero"
         d="m 365.42187,401.8125 c 0,101.62109 82.38282,184 184.00391,184 101.61719,0 183.99609,-82.37891 183.99609,-184 0,-101.62109 -82.3789,-184 -183.99609,-184 -101.62109,0 -184.00391,82.37891 -184.00391,184 m 74.00391,0 c 0,-60.75 49.24609,-110 110,-110 60.75,0 110,49.25 110,110 0,60.75391 -49.25,110 -110,110 -60.75391,0 -110,-49.24609 -110,-110"
         id="path497" />
    </clipPath>
    <clipPath
       id="clip-6">
      <path
         clip-rule="nonzero"
         d="M 659,269 H 976 V 586 H 659 Z m 0,0"
         id="path500" />
    </clipPath>
    <clipPath
       id="clip-7">
      <path
         clip-rule="nonzero"
         d="m 659.42578,427.8125 c 0,87.26172 70.73828,158 157.99609,158 87.26172,0 158.00391,-70.73828 158.00391,-158 0,-87.25781 -70.74219,-158 -158.00391,-158 -87.25781,0 -157.99609,70.74219 -157.99609,158 m 73.99609,0 c 0,-46.39063 37.60938,-84 84,-84 46.39454,0 84.00391,37.60937 84.00391,84 0,46.39453 -37.60937,84 -84.00391,84 -46.39062,0 -84,-37.60547 -84,-84"
         id="path503" />
    </clipPath>
    <clipPath
       id="clip-8">
      <path
         clip-rule="nonzero"
         d="M 295,645 H 574 V 971 H 295 Z m 0,0"
         id="path506" />
    </clipPath>
    <clipPath
       id="clip-9">
      <path
         clip-rule="nonzero"
         d="m 295.42578,711.19531 v 193.71094 c 0,10.26562 2.39453,20.39453 6.99609,29.57422 16.33204,32.58594 55.98829,45.76172 88.57422,29.42578 L 573.42187,872.47266 V 744.52734 l -182.1914,-92.21875 c -9.23828,-4.67578 -19.45313,-7.11328 -29.80469,-7.11328 -36.45312,0 -66,29.54688 -66,66 m 71.96094,166.41016 c -1.28906,-2.53125 -1.96485,-5.33203 -1.96485,-8.17578 v -121.4375 l 0.004,-0.33203 c 0.17578,-9.78516 8.16797,-17.66797 17.99609,-17.66797 2.8086,0 5.57032,0.65625 8.07813,1.91406 l 113.92578,57.20312 v 38.3125 l -113.82422,58.04297 -0.30469,0.15235 c -2.53125,1.23047 -5.21484,1.8164 -7.85937,1.8164 -6.55078,0 -12.87109,-3.58984 -16.05078,-9.82812"
         id="path509" />
    </clipPath>
    <clipPath
       id="clip-10">
      <path
         clip-rule="nonzero"
         d="M 295,645 H 574 V 971 H 295 Z m 0,0"
         id="path512" />
    </clipPath>
    <clipPath
       id="clip-11">
      <path
         clip-rule="nonzero"
         d="m 295.42578,711.19531 v 193.71094 c 0,10.26562 2.39453,20.39453 6.99609,29.57422 16.33204,32.58594 55.98829,45.76172 88.57422,29.42578 L 573.42187,872.47266 V 744.52734 l -182.1914,-92.21875 c -9.23828,-4.67578 -19.45313,-7.11328 -29.80469,-7.11328 -36.45312,0 -66,29.54688 -66,66 m 71.96094,166.41016 c -1.28906,-2.53125 -1.96485,-5.33203 -1.96485,-8.17578 v -121.4375 l 0.004,-0.33203 c 0.17578,-9.78516 8.16797,-17.66797 17.99609,-17.66797 2.8086,0 5.57032,0.65625 8.07813,1.91406 l 113.92578,57.20312 v 38.3125 l -113.82422,58.04297 -0.30469,0.15235 c -2.53125,1.23047 -5.21484,1.8164 -7.85937,1.8164 -6.55078,0 -12.86719,-3.58984 -16.05078,-9.82812"
         id="path515" />
    </clipPath>
  </defs>
  <path
     fill-rule="evenodd"
     fill="#ffffff"
     fill-opacity="1"
     d="M 111.22231,0 C 49.79712,0 0,49.79525 0,111.22046 v 272.7235 c 0,61.42519 49.79712,111.22046 111.22231,111.22046 h 272.72162 c 61.42686,0 111.22054,-49.79527 111.22054,-111.22046 V 111.22046 C 495.16447,49.79525 445.37079,0 383.94393,0 Z m 0,0"
     id="path520"
     style="stroke-width:0.483561" />
  <g
     clip-path="url(#clip-0)"
     id="g528"
     transform="translate(-121.84193,-111.23029)">
    <g
       clip-path="url(#clip-1)"
       id="g526">
      <path
         fill-rule="nonzero"
         fill="#ffffff"
         fill-opacity="1"
         d="M 121.84381,606.39471 H 617.00829 V 111.23029 H 121.84381 Z m 0,0"
         id="path522"
         style="stroke-width:0.483561" />
      <path
         fill-rule="nonzero"
         fill="#ffffff"
         fill-opacity="1"
         d="m 119.426,108.8125 h 500 v 500 h -500 z m 0,0"
         id="path524"
         style="stroke-width:0.483561" />
    </g>
  </g>
  <path
     fill-rule="evenodd"
     fill="#ff4906"
     fill-opacity="1"
     d="m 345.74466,243.71374 c 36.32168,0 65.76403,29.44421 65.76403,65.76402 v 52.22437 c 0,36.3217 -29.44235,65.76403 -65.76403,65.76403 h -96.71181 c -36.31983,0 -65.76403,-29.44233 -65.76403,-65.76403 v -52.22437 c 0,-36.31981 29.4442,-65.76402 65.76403,-65.76402 z m -0.96713,33.84913 h -94.77754 c -17.9786,0 -32.58549,14.42932 -32.87638,32.33801 l -0.006,0.544 v 50.29013 c 0,17.97858 14.42936,32.58735 32.33994,32.87824 l 0.54211,0.004 h 94.77754 c 17.98049,0 32.58922,-14.42932 32.87826,-32.33801 l 0.004,-0.544 V 310.4451 c 0,-17.97857 -14.42741,-32.58734 -32.338,-32.87634 z m 0,0"
     id="path530"
     style="stroke-width:0.483561" />
  <g
     clip-path="url(#clip-2)"
     id="g538"
     transform="matrix(0.48355899,0,0,0.48355899,-60.165339,-55.035053)">
    <g
       clip-path="url(#clip-3)"
       id="g536">
      <path
         fill-rule="nonzero"
         fill="#ff4906"
         fill-opacity="1"
         d="M 124.42578,1137.8125 H 1148.4258 v -1024 H 124.42578 Z m 0,0"
         id="path532" />
      <path
         fill-rule="nonzero"
         fill="#ff4906"
         fill-opacity="1"
         d="m 498.42578,612.8125 h 482 v 390 h -482 z m 0,0"
         id="path534" />
    </g>
  </g>
  <path
     fill-rule="nonzero"
     fill="#ff4906"
     fill-opacity="1"
     d="m 205.51252,50.29014 c 49.13984,0 88.97488,39.83506 88.97488,88.97486 0,49.13979 -39.83504,88.97485 -88.97488,88.97485 -49.13788,0 -88.97483,-39.83506 -88.97483,-88.97485 0,-49.1398 39.83695,-88.97486 88.97483,-88.97486 m 0,35.78337 c -29.37618,0 -53.19148,23.81528 -53.19148,53.19149 0,29.37809 23.8153,53.19148 53.19148,53.19148 29.37813,0 53.19153,-23.81339 53.19153,-53.19148 0,-29.37621 -23.8134,-53.19149 -53.19153,-53.19149"
     id="path540"
     style="stroke-width:0.483561" />
  <g
     clip-path="url(#clip-4)"
     id="g548"
     transform="matrix(0.48355899,0,0,0.48355899,-60.165339,-55.035053)">
    <g
       clip-path="url(#clip-5)"
       id="g546">
      <path
         fill-rule="nonzero"
         fill="#ff4906"
         fill-opacity="1"
         d="M 124.42578,1137.8125 H 1148.4258 v -1024 H 124.42578 Z m 0,0"
         id="path542" />
      <path
         fill-rule="nonzero"
         fill="#ff4906"
         fill-opacity="1"
         d="m 360.42578,212.8125 h 378 v 378 h -378 z m 0,0"
         id="path544" />
    </g>
  </g>
  <path
     fill-rule="nonzero"
     fill="#ff4906"
     fill-opacity="1"
     d="m 335.10637,75.43521 c 42.19619,0 76.40232,34.20613 76.40232,76.40232 0,42.19619 -34.20613,76.40232 -76.40232,76.40232 -42.19434,0 -76.40232,-34.20613 -76.40232,-76.40232 0,-42.19619 34.20798,-76.40232 76.40232,-76.40232 m 0,35.78336 c -22.43263,0 -40.61897,18.18635 -40.61897,40.61896 0,22.43449 18.18634,40.61895 40.61897,40.61895 22.43448,0 40.61893,-18.18446 40.61893,-40.61895 0,-22.43261 -18.18445,-40.61896 -40.61893,-40.61896"
     id="path550"
     style="stroke-width:0.483561" />
  <g
     clip-path="url(#clip-6)"
     id="g558"
     transform="matrix(0.48355899,0,0,0.48355899,-60.165339,-55.035053)">
    <g
       clip-path="url(#clip-7)"
       id="g556">
      <path
         fill-rule="nonzero"
         fill="#ff4906"
         fill-opacity="1"
         d="M 124.42578,1137.8125 H 1148.4258 v -1024 H 124.42578 Z m 0,0"
         id="path552" />
      <path
         fill-rule="nonzero"
         fill="#ff4906"
         fill-opacity="1"
         d="m 654.42578,264.8125 h 326 v 326 h -326 z m 0,0"
         id="path554" />
    </g>
  </g>
  <path
     fill-rule="evenodd"
     fill="#ff4906"
     fill-opacity="1"
     d="m 114.60347,256.95494 c 5.00933,0 9.94696,1.17868 14.41419,3.43969 l 88.10028,44.59321 v 61.86722 l -88.21359,44.21542 c -15.75722,7.89939 -34.93338,1.52813 -42.83089,-14.2291 -2.2251,-4.43892 -3.38489,-9.33684 -3.38489,-14.30088 v -93.67066 c 0,-17.62724 14.28954,-31.9149 31.9149,-31.9149 m 10.63829,41.0043 c -4.75248,0 -8.61719,3.8118 -8.70218,8.54539 l -0.002,0.15867 v 58.72219 c 0,1.37512 0.32676,2.72947 0.95201,3.95348 2.15713,4.23302 7.30439,5.94437 11.5582,3.87413 l 0.14922,-0.0737 55.03882,-28.0672 v -18.52635 l -55.08788,-27.66108 c -1.2108,-0.60823 -2.54813,-0.92556 -3.90626,-0.92556"
     id="path560"
     style="stroke-width:0.483561" />
  <g
     clip-path="url(#clip-8)"
     id="g566"
     transform="matrix(0.48355899,0,0,0.48355899,-60.165339,-55.035053)">
    <g
       clip-path="url(#clip-9)"
       id="g564">
      <path
         fill-rule="nonzero"
         fill="#ff4906"
         fill-opacity="1"
         d="M 124.42578,1137.8125 H 1148.4258 v -1024 H 124.42578 Z m 0,0"
         id="path562" />
    </g>
  </g>
  <g
     clip-path="url(#clip-10)"
     id="g572"
     transform="matrix(0.48355899,0,0,0.48355899,-60.165339,-55.035053)">
    <g
       clip-path="url(#clip-11)"
       id="g570">
      <path
         fill-rule="nonzero"
         fill="#ff4906"
         fill-opacity="1"
         d="M 290.42578,640.19531 H 578.42187 V 975.92187 H 290.42578 Z m 0,0"
         id="path568" />
    </g>
  </g>
</svg>
